<svg width="164" height="22" viewBox="0 0 164 22" fill="none" xmlns="http://www.w3.org/2000/svg">
<path d="M164 5.37163C162.445 5.49318 160.883 5.77275 159.334 5.7059C148.68 5.25012 138.027 4.47224 127.367 4.29601C116.626 4.11977 105.861 4.24131 95.1254 4.75179C85.7339 5.19542 76.3483 6.1009 67.0155 7.28594C59.0563 8.29475 51.1792 10.0328 43.2551 11.3758C31.551 13.3691 20.1463 16.6143 8.81195 20.1451C7.23301 20.6374 5.71277 21.3181 4.13383 21.8103C2.69576 22.26 1.49248 21.944 0.606162 20.4976C-0.421029 18.8143 -0.186244 17.9209 1.64509 17.4226C12.5333 14.4873 23.3922 11.4001 34.3391 8.70797C39.8331 7.35885 45.4915 6.68431 51.0911 5.80312C55.558 5.09818 60.0365 4.24129 64.5327 4.01036C67.356 3.87059 69.9915 3.03804 72.7209 2.73418C78.8547 2.05962 85.0237 1.76791 91.1751 1.28174C94.7321 1.00219 98.2774 0.576789 101.834 0.370167C105.016 0.181776 108.215 0.102769 111.402 0.175694C113.151 0.218234 114.889 0.728714 116.644 0.898874C117.389 0.9718 118.316 0.971788 118.897 0.582851C121.369 -1.06405 123.681 1.39111 126.452 0.54639C129.745 -0.462413 133.624 0.546414 137.246 0.722651C139.148 0.819885 141.061 0.923202 142.945 1.18452C145.44 1.52484 147.905 2.06569 150.394 2.42424C151.169 2.53363 152.026 2.14468 152.783 2.29661C154.115 2.564 155.383 3.19604 156.722 3.45128C159.134 3.90706 161.57 4.19877 164 4.55732C164 4.82471 163.994 5.09211 163.988 5.3595L164 5.37163Z" fill="#DFFF41"/>
</svg>
