<svg width="58" height="18" viewBox="0 0 58 18" fill="none" xmlns="http://www.w3.org/2000/svg">
<path d="M58 4.23857C57.4499 4.33447 56.8977 4.55508 56.3497 4.50233C52.582 4.14269 48.8143 3.52889 45.0446 3.38983C41.2458 3.25077 37.4386 3.34667 33.6419 3.74947C30.3205 4.09953 27.0012 4.81401 23.7006 5.74909C20.8858 6.5451 18.1 7.91653 15.2976 8.97628C11.1583 10.5491 7.1249 13.1098 3.11642 15.8958C2.55802 16.2842 2.02037 16.8213 1.46196 17.2098C0.953378 17.5646 0.527829 17.3152 0.214374 16.174C-0.1489 14.8457 -0.0658668 14.1408 0.5818 13.7476C4.43251 11.4315 8.27285 8.99546 12.1443 6.87116C14.0873 5.80661 16.0885 5.27435 18.0688 4.57904C19.6485 4.02279 21.2324 3.34666 22.8225 3.16444C23.821 3.05415 24.7531 2.39721 25.7184 2.15745C27.8876 1.62517 30.0693 1.39499 32.2448 1.01137C33.5028 0.790792 34.7566 0.455124 36.0146 0.292086C37.1397 0.143433 38.2711 0.0810911 39.3982 0.138634C40.0169 0.172201 40.6313 0.575003 41.252 0.70927C41.5156 0.766813 41.8436 0.766804 42.0491 0.459908C42.923 -0.839606 43.7409 1.09768 44.7207 0.431138C45.8853 -0.364874 47.2574 0.431156 48.5382 0.570219C49.2108 0.646943 49.8876 0.728467 50.5539 0.934663C51.4361 1.2032 52.308 1.62996 53.1882 1.91288C53.4622 1.9992 53.7653 1.69229 54.033 1.81217C54.5043 2.02316 54.9526 2.52188 55.4259 2.72328C56.2791 3.08293 57.1406 3.3131 58 3.59602C58 3.80701 57.9979 4.01801 57.9958 4.229L58 4.23857Z" fill="#DFFF41"/>
</svg>
