<svg width="28" height="13" viewBox="0 0 28 13" fill="none" xmlns="http://www.w3.org/2000/svg">
<path d="M27.1223 2.99611C26.8651 3.0639 26.6068 3.21984 26.3506 3.18255C24.5887 2.92833 22.8268 2.49446 21.064 2.39616C19.2876 2.29786 17.5073 2.36565 15.7318 2.65038C14.1787 2.89782 12.6265 3.40287 11.083 4.06384C9.76672 4.62652 8.46401 5.59594 7.15353 6.34504C5.21791 7.45683 3.33179 9.26688 1.45732 11.2362C1.19619 11.5108 0.944777 11.8905 0.683652 12.165C0.445824 12.4158 0.246826 12.2396 0.100247 11.4328C-0.0696297 10.4939 -0.0308011 9.99566 0.272065 9.71771C2.07276 8.08053 3.8686 6.3586 5.679 4.857C6.5876 4.10451 7.52338 3.72827 8.44945 3.23678C9.18817 2.84358 9.92883 2.36564 10.6724 2.23684C11.1393 2.15888 11.5752 1.69451 12.0266 1.52503C13.041 1.14878 14.0612 0.986076 15.0785 0.714907C15.6668 0.558985 16.2531 0.321713 16.8414 0.206466C17.3675 0.101388 17.8965 0.0573207 18.4236 0.097996C18.7129 0.121723 19.0002 0.406451 19.2905 0.50136C19.4138 0.542036 19.5672 0.542029 19.6633 0.325094C20.0719 -0.59349 20.4544 0.775913 20.9126 0.304757C21.4572 -0.257918 22.0988 0.30477 22.6977 0.403069C23.0123 0.457303 23.3287 0.51493 23.6403 0.660683C24.0529 0.850501 24.4606 1.15217 24.8722 1.35216C25.0003 1.41317 25.142 1.19623 25.2672 1.28097C25.4876 1.43011 25.6973 1.78264 25.9186 1.925C26.3176 2.17922 26.7204 2.34192 27.1223 2.54191C27.1223 2.69105 27.1213 2.8402 27.1204 2.98934L27.1223 2.99611Z" fill="#DFFF41"/>
</svg>
